<?xml version="1.0" encoding="UTF-8" standalone="no"?>
<!DOCTYPE svg PUBLIC "-//W3C//DTD SVG 1.1//EN" "http://www.w3.org/Graphics/SVG/1.1/DTD/svg11.dtd">
<svg width="100%" height="100%" viewBox="0 0 1907 769" version="1.1" xmlns="http://www.w3.org/2000/svg" xmlns:xlink="http://www.w3.org/1999/xlink" xml:space="preserve" xmlns:serif="http://www.serif.com/" style="fill-rule:evenodd;clip-rule:evenodd;stroke-linejoin:round;stroke-miterlimit:2;">
    <path id="path4200" d="M24.331,720.501C24.331,720.135 25.747,717.041 27.477,713.626C29.647,709.344 31.388,707.418 33.088,707.418C35.432,707.418 35.388,707.757 32.182,714.293C29.965,718.814 28.043,721.168 26.571,721.168C25.339,721.168 24.331,720.868 24.331,720.501ZM34.331,720.501C34.331,720.135 35.747,717.041 37.477,713.626C40.186,708.28 41.139,707.418 44.338,707.418L48.054,707.418L44.682,714.293C41.795,720.179 40.808,721.168 37.821,721.168C35.901,721.168 34.331,720.868 34.331,720.501ZM46.831,720.501C46.831,720.135 48.247,717.041 49.977,713.626C53.114,707.436 53.141,707.418 59.338,707.418L65.554,707.418L62.182,714.293L58.81,721.168L52.821,721.168C49.526,721.168 46.831,720.868 46.831,720.501ZM64.331,720.501C64.331,720.135 65.747,717.041 67.477,713.626L70.623,707.418L84.304,707.418L77.56,721.168L70.946,721.168C67.307,721.168 64.331,720.868 64.331,720.501ZM81.831,720.501C81.831,720.135 83.247,717.041 84.977,713.626L88.123,707.418L106.804,707.418L100.06,721.168L90.946,721.168C85.932,721.168 81.831,720.868 81.831,720.501ZM104.331,720.501C104.331,720.135 105.747,717.041 107.477,713.626L110.623,707.418L133.054,707.418L126.31,721.168L115.321,721.168C109.276,721.168 104.331,720.868 104.331,720.501ZM129.331,720.501C129.331,720.135 130.747,717.041 132.477,713.626L135.623,707.418L159.304,707.418L152.56,721.168L140.946,721.168C134.557,721.168 129.331,720.868 129.331,720.501ZM155.581,720.501C155.581,720.135 156.997,717.041 158.727,713.626L161.873,707.418L195.554,707.418L188.81,721.168L172.196,721.168C163.057,721.168 155.581,720.868 155.581,720.501ZM190.581,720.501C190.581,720.135 191.997,717.041 193.727,713.626L196.873,707.418L1690.55,707.418L1687.18,714.293L1683.81,721.168L937.196,721.168C526.557,721.168 190.581,720.868 190.581,720.501ZM1685.58,720.501C1685.58,720.135 1687,717.041 1688.73,713.626L1691.87,707.418L1725.55,707.418L1722.18,714.293L1718.81,721.168L1702.19,721.168C1693.06,721.168 1685.58,720.868 1685.58,720.501ZM1721.83,720.501C1721.83,720.135 1723.25,717.041 1724.98,713.626L1728.12,707.418L1751.8,707.418L1748.43,714.293L1745.06,721.168L1733.44,721.168C1727.06,721.168 1721.83,720.868 1721.83,720.501ZM1748.08,720.501C1748.08,720.135 1749.5,717.041 1751.23,713.626L1754.37,707.418L1776.8,707.418L1773.43,714.293L1770.06,721.168L1759.07,721.168C1753.03,721.168 1748.08,720.868 1748.08,720.501ZM1774.33,720.501C1774.33,720.135 1775.75,717.041 1777.48,713.626L1780.62,707.418L1799.3,707.418L1795.93,714.293L1792.56,721.168L1783.44,721.168C1778.43,721.168 1774.33,720.868 1774.33,720.501ZM1796.83,720.501C1796.83,720.135 1798.25,717.041 1799.98,713.626L1803.12,707.418L1816.8,707.418L1813.43,714.293L1810.06,721.168L1803.44,721.168C1799.81,721.168 1796.83,720.868 1796.83,720.501ZM1815.58,720.501C1815.58,720.135 1817,717.041 1818.73,713.626C1821.86,707.436 1821.89,707.418 1828.09,707.418L1834.3,707.418L1830.93,714.293L1827.56,721.168L1821.57,721.168C1818.28,721.168 1815.58,720.868 1815.58,720.501ZM1833.08,720.501C1833.08,720.135 1834.5,717.041 1836.23,713.626C1838.94,708.28 1839.89,707.418 1843.09,707.418L1846.8,707.418L1843.43,714.293C1840.55,720.179 1839.56,721.168 1836.57,721.168C1834.65,721.168 1833.08,720.868 1833.08,720.501ZM1845.58,720.501C1845.58,720.135 1847,717.041 1848.73,713.626C1850.9,709.344 1852.64,707.418 1854.34,707.418C1856.68,707.418 1856.64,707.757 1853.43,714.293C1851.22,718.814 1849.29,721.168 1847.82,721.168C1846.59,721.168 1845.58,720.868 1845.58,720.501ZM48.381,673.043C55.856,658.06 59.274,652.418 60.876,652.418C62.089,652.418 63.081,652.756 63.081,653.17C63.081,653.583 58.44,662.855 52.768,673.773C45.472,687.819 41.818,693.631 40.273,693.646C38.529,693.664 40.157,689.527 48.381,673.043ZM58.381,673.043C67.965,653.833 68.908,652.418 72.126,652.418C74.026,652.418 75.581,652.756 75.581,653.17C75.581,653.583 70.94,662.855 65.268,673.773C55.772,692.053 54.684,693.626 51.523,693.646L48.091,693.668L58.381,673.043L58.381,673.043ZM70.881,673.043L81.171,652.418L87.126,652.418C90.401,652.418 93.081,652.756 93.081,653.17C93.081,653.583 88.44,662.855 82.768,673.773L72.456,693.625L60.591,693.668L70.881,673.043L70.881,673.043ZM88.381,673.043L98.671,652.418L105.251,652.418C108.87,652.418 111.831,652.756 111.831,653.17C111.831,653.583 107.19,662.855 101.518,673.773L91.206,693.625L78.091,693.668L88.381,673.043L88.381,673.043ZM105.881,673.043L116.171,652.418L125.251,652.418C130.245,652.418 134.331,652.756 134.331,653.17C134.331,653.583 129.69,662.855 124.018,673.773L113.706,693.625L95.591,693.668L105.881,673.043L105.881,673.043ZM128.381,673.043L138.671,652.418L149.626,652.418C155.651,652.418 160.581,652.756 160.581,653.17C160.581,653.583 155.94,662.855 150.268,673.773L139.956,693.625L118.091,693.668L128.381,673.043L128.381,673.043ZM153.381,673.043L163.671,652.418L175.251,652.418C181.62,652.418 186.831,652.756 186.831,653.17C186.831,653.583 182.19,662.855 176.518,673.773L166.206,693.625L143.091,693.668L153.381,673.043L153.381,673.043ZM179.631,673.043L189.921,652.418L206.501,652.418C215.62,652.418 223.081,652.756 223.081,653.17C223.081,653.583 218.44,662.855 212.768,673.773L202.456,693.625L169.341,693.668L179.631,673.043L179.631,673.043ZM214.631,673.043L224.921,652.418L1555.58,652.418L1555.58,633.668C1555.58,615.085 1555.56,614.917 1552.77,614.822C1551.22,614.77 1549.11,614.565 1548.08,614.368C1547.05,614.17 1542.55,613.649 1538.08,613.21C1522.63,611.692 1512.8,609.649 1486.21,602.426C1467.38,597.313 1430.12,580.395 1412.8,569.101L1404.38,563.617L1407.58,556.455C1409.33,552.516 1412.18,545.918 1413.91,541.793C1415.65,537.668 1417.45,533.879 1417.93,533.374C1418.4,532.868 1421.63,534.362 1425.09,536.693C1432.96,541.996 1456.02,554.918 1457.6,554.918C1458.25,554.918 1460.83,550.124 1463.33,544.265L1467.87,533.612L1463.91,531.788C1459.97,529.97 1453.59,526.325 1442.2,519.388C1436.64,516 1424.29,507.184 1421.06,504.293C1420.29,503.606 1416.91,500.702 1413.56,497.841C1381.06,470.129 1357.28,434.878 1342.58,392.603C1332.66,364.103 1329.39,342.721 1329.92,309.918C1330.14,296.512 1330.67,283.856 1331.11,281.793C1331.54,279.731 1333.07,272.137 1334.49,264.918C1340.26,235.741 1357.45,194.755 1371.46,176.763C1372.01,176.06 1374.4,172.685 1376.79,169.263C1379.17,165.842 1381.7,162.413 1382.41,161.644C1383.12,160.874 1386.05,157.499 1388.91,154.144C1416.62,121.643 1451.87,97.867 1494.15,83.164C1522.63,73.257 1544.02,69.981 1576.83,70.499C1590.24,70.711 1602.33,71.163 1603.71,71.504C1605.08,71.845 1608.74,72.537 1611.83,73.043C1614.92,73.549 1618.58,74.184 1619.96,74.453C1621.33,74.723 1623.86,75.208 1625.58,75.531C1628.17,76.017 1654.02,83.506 1660.62,85.686C1662.04,86.154 1663.61,83.784 1666.67,76.556C1668.94,71.186 1670.8,66.231 1670.81,65.543C1670.83,64.027 1646.75,55.753 1635.89,53.547C1631.6,52.674 1628.08,51.334 1628.08,50.57C1628.08,49.321 1640.15,21.182 1641.09,20.244C1641.3,20.031 1644.79,20.763 1648.84,21.871C1652.89,22.978 1657.89,24.345 1659.96,24.907C1689.11,32.855 1731.31,54.587 1758.08,75.441C1775.95,89.364 1797.15,110.329 1809.37,126.168C1811.75,129.262 1814.06,132.074 1814.49,132.418C1816.27,133.827 1834.32,162.5 1839.28,171.793C1847.13,186.485 1860.05,219.281 1864.3,235.312C1871.56,262.682 1874.45,285.521 1874.38,314.915C1874.35,326.261 1874.09,336.949 1873.81,338.668C1873.52,340.387 1872.95,345.168 1872.55,349.293C1871.06,364.308 1868.99,374.222 1861.84,400.543C1853.95,429.594 1832.16,471.901 1811.31,498.668C1797.38,516.54 1776.42,537.736 1760.58,549.954C1757.49,552.34 1754.67,554.647 1754.33,555.08C1752.92,556.854 1724.25,574.907 1714.96,579.871C1700.3,587.703 1667.49,600.626 1651.44,604.897C1633.58,609.645 1610.98,613.465 1594.64,614.492L1581.83,615.298L1581.83,652.418L1649.96,652.418C1687.42,652.418 1718.08,652.756 1718.08,653.17C1718.08,653.583 1713.44,662.855 1707.77,673.773L1697.46,693.625L950.898,693.646L204.341,693.668L214.631,673.043L214.631,673.043ZM1618.71,577.465C1657.87,569.712 1691.9,555.776 1724.96,533.955C1738.32,525.132 1744.66,519.769 1760.67,503.76C1781.35,483.079 1793.87,466.9 1806.18,444.955C1830.96,400.785 1842,354.64 1840.24,302.612C1838.59,253.93 1822.72,206.247 1793.37,161.793C1784.54,148.416 1779.2,142.105 1763.17,126.092C1750.84,113.77 1738.96,103.271 1730.77,97.447C1718.02,88.386 1691.18,72.435 1688.67,72.424C1687.96,72.42 1685.33,77.212 1682.84,83.071L1678.29,93.724L1682.25,95.548C1686.19,97.366 1692.58,101.011 1703.96,107.948C1709.52,111.336 1721.87,120.153 1725.11,123.043C1725.88,123.731 1729.25,126.634 1732.61,129.495C1765.11,157.207 1788.88,192.458 1803.59,234.733C1824.76,295.601 1820.25,363.425 1791.15,421.691C1781.63,440.755 1771.19,457.506 1763.73,465.692C1763.03,466.462 1760.12,469.837 1757.25,473.192C1729.54,505.693 1694.29,529.469 1652.02,544.172C1623.52,554.084 1602.13,557.357 1569.33,556.829C1555.92,556.613 1543.27,556.083 1541.21,555.652C1536.85,554.741 1532.73,553.968 1527.46,553.077C1518.47,551.558 1503.26,547.548 1491.87,543.693C1487.42,542.187 1483.6,541.425 1483.39,541.999C1483.18,542.573 1481.11,547.262 1478.79,552.418C1476.48,557.574 1474.95,562.177 1475.39,562.645C1476.8,564.121 1499.4,571.233 1513.08,574.504C1534.16,579.545 1550.86,581.084 1579.33,580.612C1599.29,580.28 1608,579.584 1618.71,577.465ZM1579.56,480.085C1591.16,470.787 1596.42,465.215 1594.88,463.86C1593.86,462.957 1581.54,457.514 1539.19,439.262L1529.68,435.161L1521.23,454.727C1516.58,465.488 1512.52,474.959 1512.2,475.774C1510.92,479.054 1545.24,487.088 1561.44,487.3L1570.42,487.418L1579.56,480.085L1579.56,480.085ZM1617.59,482.167C1623.36,480.654 1628.08,479.042 1628.08,478.584C1628.08,478.126 1625.29,476.591 1621.87,475.172L1615.67,472.593L1610.51,478.755C1607.67,482.145 1605.74,484.918 1606.23,484.918C1606.71,484.918 1611.82,483.68 1617.59,482.167ZM1674.96,455.057C1686.28,447.145 1705.62,428.476 1711.63,419.638L1715.66,413.733L1711.56,411.979C1709.3,411.014 1698.82,406.466 1688.26,401.871C1677.7,397.277 1668.91,393.692 1668.73,393.905C1668.55,394.118 1667.41,396.262 1666.21,398.668C1659.9,411.305 1640.68,441.338 1629.6,455.89C1627.89,458.143 1626.84,460.346 1627.28,460.787C1627.72,461.227 1632.72,463.678 1638.39,466.233L1648.71,470.879L1656.83,466.46C1661.3,464.03 1669.46,458.898 1674.96,455.057L1674.96,455.057ZM1505.04,448.367C1509.7,437.545 1513.28,428.454 1512.99,428.165C1512.47,427.652 1454.16,402.081 1448.23,399.768L1445.26,398.607L1446.39,434.102L1453.51,440.73C1467.29,453.554 1493.68,471.182 1495.74,468.937C1496.19,468.445 1500.37,459.189 1505.04,448.367ZM1611.72,448.356C1618.37,440.761 1625.1,431.818 1632.65,420.543C1640.45,408.877 1653.08,388.245 1653.08,387.153C1653.08,385.707 1567.88,349.626 1566.92,350.667C1565.9,351.783 1536.85,418.24 1536.42,420.434C1536.24,421.407 1604.43,452.169 1607.18,452.353C1607.72,452.389 1609.76,450.59 1611.72,448.356ZM1540.34,367.106C1551.48,341.496 1560.59,319.918 1560.58,319.154C1560.58,317.214 1474.04,279.712 1472.68,281.064C1470.59,283.156 1459.13,318.181 1454.85,335.543C1450.65,352.611 1445.71,381.828 1446.88,382.767C1448.19,383.831 1517.56,413.62 1518.78,413.643C1519.5,413.657 1529.21,392.715 1540.34,367.106ZM1425.91,396.568L1426.45,390.092L1420.26,387.521C1414.64,385.185 1414.15,385.149 1414.9,387.122C1416.66,391.724 1424.78,405.42 1425.08,404.262C1425.25,403.592 1425.62,400.129 1425.91,396.568ZM1429.94,366.516C1432.04,349.699 1441.82,314.537 1452.06,287.026C1454.82,279.591 1456.81,273.227 1456.46,272.884C1455.8,272.216 1410.77,252.418 1409.92,252.418C1408.82,252.418 1403.08,273.696 1401.16,284.918C1398.96,297.748 1398.37,319.03 1399.84,333.043C1401.03,344.477 1405.43,363.438 1407.26,365.091C1409.26,366.89 1427.27,374.643 1428.25,374.123C1428.68,373.891 1429.44,370.468 1429.94,366.516L1429.94,366.516ZM1777.93,356.059C1780.56,343.739 1781.21,334.798 1781.18,311.168C1781.14,276.481 1784.76,281.575 1749.12,266.13C1732.51,258.932 1718.35,253.043 1717.64,253.043C1716.93,253.043 1715.4,258.387 1714.23,264.918C1711.38,280.796 1706.45,300.097 1701.02,316.559C1698.58,323.993 1696.78,330.288 1697.04,330.547C1698.67,332.179 1775.1,364.579 1775.7,363.892C1776.1,363.425 1777.11,359.9 1777.93,356.059ZM1684.12,313.668C1688.23,300.845 1692.9,281.197 1695.6,265.426C1699.61,241.968 1703.3,246.256 1664.64,229.398C1646.25,221.377 1630.06,214.525 1628.65,214.171C1626.37,213.594 1624.49,217.24 1610.65,249.139C1602.15,268.726 1595.24,285.179 1595.28,285.703C1595.41,287.112 1679.82,323.568 1680.74,322.611C1681.17,322.161 1682.69,318.137 1684.12,313.668ZM1579.73,276.481C1585.63,262.902 1594.95,241.484 1600.45,228.883L1610.45,205.973L1603.33,202.807C1599.41,201.066 1582.88,193.854 1566.59,186.781L1536.98,173.921L1527.31,185.982C1507.63,210.53 1478.18,260.562 1481.49,263.809C1483.04,265.327 1564.75,300.921 1566.98,301.051C1568.46,301.136 1571.94,294.428 1579.73,276.481ZM1771.1,247.169C1764.95,228.357 1746.97,195.094 1735.97,182.198C1734.04,179.93 1728.89,174.411 1724.53,169.934C1718.15,163.388 1716.73,162.405 1717.27,164.918C1719.57,175.677 1720.82,197.579 1720.1,214.662C1719.66,225.177 1719.16,234.395 1719,235.146C1718.57,237.123 1773.6,261.04 1774.1,259.092C1774.31,258.242 1772.96,252.877 1771.1,247.169ZM1466.74,252.106C1471.19,239.241 1498.18,193.842 1512.84,174.567C1519.12,166.307 1519.22,166.062 1516.5,164.999C1514.96,164.398 1509.97,162.219 1505.41,160.155L1497.12,156.402L1487.73,161.754C1459.75,177.704 1435.45,201.879 1421.02,228.133L1416.59,236.194L1420.77,237.957C1423.07,238.927 1433.39,243.408 1443.71,247.916C1454.02,252.423 1463.1,256.124 1463.9,256.139C1464.69,256.155 1465.97,254.34 1466.74,252.106ZM1699.3,213.981C1699.26,195.229 1698.24,191.679 1690.97,185.053C1682.31,177.146 1667.93,166.726 1658.66,161.628L1650.64,157.22L1647.72,163.881C1635.75,191.156 1632.62,199.142 1633.71,199.573C1634.39,199.845 1648.74,206.169 1665.58,213.626C1682.42,221.083 1696.91,227.237 1697.77,227.301C1698.93,227.388 1699.32,223.974 1699.3,213.981ZM1625.47,171.351C1630.34,160.108 1634.33,150.704 1634.33,150.453C1634.33,150.203 1629.69,148.6 1624.02,146.89C1611.15,143.013 1593.79,140.011 1582.88,139.778C1574.8,139.606 1574.34,139.768 1567.26,145.267C1558.12,152.359 1548.3,162.559 1549.96,163.234C1550.64,163.514 1565.83,170.132 1583.71,177.941C1601.58,185.749 1616.3,192.061 1616.41,191.966C1616.52,191.871 1620.59,182.594 1625.47,171.351ZM1534.02,148.73C1536.25,146.038 1538.08,143.572 1538.08,143.248C1538.08,142.925 1533.58,143.846 1528.08,145.294C1522.58,146.742 1518.08,148.315 1518.08,148.789C1518.08,149.691 1526.54,153.509 1528.71,153.581C1529.39,153.604 1531.78,151.421 1534.02,148.73ZM1709.63,673.043L1719.92,652.418L1736.5,652.418C1745.62,652.418 1753.08,652.756 1753.08,653.17C1753.08,653.583 1748.44,662.855 1742.77,673.773L1732.46,693.625L1715.9,693.646L1699.34,693.668L1709.63,673.043L1709.63,673.043ZM1745.88,673.043L1756.17,652.418L1767.75,652.418C1774.12,652.418 1779.33,652.756 1779.33,653.17C1779.33,653.583 1774.69,662.855 1769.02,673.773L1758.71,693.625L1747.15,693.646L1735.59,693.668L1745.88,673.043L1745.88,673.043ZM1772.13,673.043L1782.42,652.418L1793.38,652.418C1799.4,652.418 1804.33,652.756 1804.33,653.17C1804.33,653.583 1799.69,662.855 1794.02,673.773L1783.71,693.625L1772.77,693.646L1761.84,693.668L1772.13,673.043L1772.13,673.043ZM1798.38,673.043L1808.67,652.418L1817.75,652.418C1822.75,652.418 1826.83,652.756 1826.83,653.17C1826.83,653.583 1822.19,662.855 1816.52,673.773L1806.21,693.625L1797.15,693.646L1788.09,693.668L1798.38,673.043L1798.38,673.043ZM1820.88,673.043L1831.17,652.418L1837.75,652.418C1841.37,652.418 1844.33,652.756 1844.33,653.17C1844.33,653.583 1839.69,662.855 1834.02,673.773L1823.71,693.625L1817.15,693.646L1810.59,693.668L1820.88,673.043L1820.88,673.043ZM1839.63,673.043L1849.92,652.418L1855.88,652.418C1859.15,652.418 1861.83,652.756 1861.83,653.17C1861.83,653.583 1857.19,662.855 1851.52,673.773L1841.21,693.625L1835.27,693.646L1829.34,693.668L1839.63,673.043L1839.63,673.043ZM1857.13,673.043C1866.72,653.833 1867.66,652.418 1870.88,652.418C1872.78,652.418 1874.33,652.756 1874.33,653.17C1874.33,653.583 1869.69,662.855 1864.02,673.773C1854.52,692.053 1853.43,693.626 1850.27,693.646L1846.84,693.668L1857.13,673.043L1857.13,673.043ZM1869.63,673.043C1877.11,658.06 1880.52,652.418 1882.13,652.418C1883.34,652.418 1884.33,652.756 1884.33,653.17C1884.33,653.583 1879.69,662.855 1874.02,673.773C1866.72,687.819 1863.07,693.631 1861.52,693.646C1859.78,693.664 1861.41,689.527 1869.63,673.043ZM58.081,557.418L58.081,69.918L126.831,69.918L126.831,488.668L413.486,488.668C671.69,488.668 701.31,488.468 711.923,486.649C752.113,479.762 785.885,458.608 796.835,433.463C811.064,400.791 772.824,363.003 714.239,351.841C708.446,350.737 691.331,349.035 676.206,348.057C644.977,346.039 627.779,343.097 606.648,336.158C550.439,317.701 509.834,279.899 497.899,234.918C494.05,220.413 494.068,197.56 497.939,183.043C507.345,147.777 534.27,116.734 573.241,96.224C594.305,85.139 615.299,78.227 644.348,72.815C655.443,70.748 675.81,70.581 960.894,70.232L1265.58,69.86L1265.58,138.668L1016.83,138.668L1016.83,557.418L948.081,557.418L948.081,138.589L802.768,138.995C659.385,139.397 657.305,139.438 646.101,142.077C622.86,147.552 605.532,155.085 590.436,166.275C571.388,180.397 560.967,199.779 564.234,215.011C570.301,243.3 603.639,267.434 648.593,276.081C655.53,277.415 671.612,279.122 684.331,279.874C730.516,282.604 760.025,290.028 791.729,306.894C806.464,314.732 820.494,325.055 832.003,336.525C856.489,360.927 868.202,387.077 868.519,418.043C868.829,448.355 857.778,474.582 834.356,499.126C806.579,528.231 767.996,546.724 718.043,554.874C702.655,557.385 698.336,557.418 380.268,557.418L58.081,557.418ZM1144.33,557.418L1144.33,186.168L1213.08,186.168L1213.08,557.418L1144.33,557.418ZM291.831,437.878C269.99,433.755 248.983,425.467 234.813,415.381C224.157,407.796 210.493,393.028 204.934,383.086C196.76,368.471 193.935,357.7 193.938,341.168C193.94,329.017 194.45,325.246 197.229,316.793C201.58,303.558 208.084,292.81 218.524,281.602C233.416,265.613 252.489,254.716 277.772,247.75C288.844,244.7 291.953,244.393 311.831,244.393C331.616,244.393 334.841,244.708 345.581,247.683C352.112,249.493 358.44,251.359 359.643,251.829C361.545,252.574 361.829,251.892 361.816,246.614C361.769,227.183 350.931,212.544 330.878,204.825C325.291,202.675 321.082,202.065 311.831,202.065C298.312,202.065 290.099,204.547 279.075,211.965L272.605,216.319L263.781,212.259C258.927,210.026 245.488,203.664 233.916,198.121L212.877,188.043L220.91,180.115C236.381,164.845 255.73,154.242 278.778,148.404C288.285,145.996 293.226,145.573 311.831,145.573C337.15,145.573 347.839,147.629 367.625,156.306C397.335,169.336 417.471,190.717 426.945,219.293C429.806,227.924 429.855,229.016 430.526,299.293C431.185,368.35 431.287,370.718 433.838,376.232C437.188,383.472 443.496,390.679 450.228,394.957L455.501,398.307L431.743,417.92C418.677,428.707 407.297,437.797 406.454,438.121C405.612,438.444 400.012,434.478 394.009,429.307L383.095,419.907L371.499,425.435C352.333,434.573 338.564,437.656 314.956,438.095C303.956,438.3 293.55,438.202 291.831,437.878ZM328.851,379.315C344.519,374.649 356.198,363.348 360.047,349.13C362.398,340.444 361.541,334.15 356.719,324.698C350.803,313.102 336.197,303.766 319.956,301.201C303.671,298.629 284.978,304.378 273.923,315.358C268.754,320.493 263.783,330.118 262.422,337.625C260.708,347.089 268.146,363.592 277.178,370.363C291.761,381.295 311.005,384.629 328.851,379.315L328.851,379.315Z" style="fill-rule:nonzero;"/>
</svg>
