<?xml version="1.0" encoding="UTF-8" standalone="no"?>
<svg
   xmlns:dc="http://purl.org/dc/elements/1.1/"
   xmlns:cc="http://creativecommons.org/ns#"
   xmlns:rdf="http://www.w3.org/1999/02/22-rdf-syntax-ns#"
   xmlns:svg="http://www.w3.org/2000/svg"
   xmlns="http://www.w3.org/2000/svg"
   xmlns:sodipodi="http://sodipodi.sourceforge.net/DTD/sodipodi-0.dtd"
   xmlns:inkscape="http://www.inkscape.org/namespaces/inkscape"
   viewBox="0 0 2607.9585 813.83124"
   height="813.83124"
   width="2607.9585"
   version="1.1"
   id="svg4190"
   inkscape:version="0.91 r13725"
   sodipodi:docname="lastig1.svg">
  <sodipodi:namedview
     pagecolor="#ffffff"
     bordercolor="#666666"
     borderopacity="1"
     objecttolerance="10"
     gridtolerance="10"
     guidetolerance="10"
     inkscape:pageopacity="0"
     inkscape:pageshadow="2"
     inkscape:window-width="1366"
     inkscape:window-height="744"
     id="namedview7"
     showgrid="false"
     fit-margin-top="0"
     fit-margin-left="0"
     fit-margin-right="0"
     fit-margin-bottom="0"
     inkscape:zoom="0.26166667"
     inkscape:cx="1385.7559"
     inkscape:cy="442.93126"
     inkscape:window-x="0"
     inkscape:window-y="24"
     inkscape:window-maximized="1"
     inkscape:current-layer="svg4190" />
  <metadata
     id="metadata4196">
    <rdf:RDF>
      <cc:Work
         rdf:about="">
        <dc:format>image/svg+xml</dc:format>
        <dc:type
           rdf:resource="http://purl.org/dc/dcmitype/StillImage" />
        <dc:title></dc:title>
      </cc:Work>
    </rdf:RDF>
  </metadata>
  <defs
     id="defs4194" />
  <rect
     ry="112.4498"
     y="0.050000001"
     x="0.050000001"
     height="813.73126"
     width="2607.8584"
     id="rect4202"
     style="opacity:0.93999999;fill:#ffffff;fill-opacity:1;stroke:#000000;stroke-width:0.1;stroke-miterlimit:4;stroke-dasharray:none;stroke-opacity:0" />
  <path
     id="path4200"
     d="m 167.57116,744.60846 c 0,-0.36661 1.41573,-3.46036 3.14606,-6.875 2.17017,-4.28262 3.9108,-6.20845 5.61142,-6.20845 2.34394,0 2.2993,0.3386 -0.90646,6.875 -2.2171,4.5206 -4.13878,6.875 -5.61141,6.875 -1.23179,0 -2.23961,-0.29995 -2.23961,-0.66655 z m 10,0 c 0,-0.36661 1.41573,-3.46036 3.14606,-6.875 2.70924,-5.34644 3.66191,-6.20845 6.86142,-6.20845 l 3.71536,0 -3.37182,6.875 c -2.88693,5.88635 -3.87363,6.875 -6.86141,6.875 -1.91929,0 -3.48961,-0.29995 -3.48961,-0.66655 z m 12.5,0 c 0,-0.36661 1.41573,-3.46036 3.14606,-6.875 3.1369,-6.19038 3.16414,-6.20845 9.36142,-6.20845 l 6.21536,0 -3.37182,6.875 -3.37181,6.875 -5.98961,0 c -3.29428,0 -5.9896,-0.29995 -5.9896,-0.66655 z m 17.5,0 c 0,-0.36661 1.41573,-3.46036 3.14606,-6.875 l 3.14605,-6.20845 6.84036,0 6.84037,0 -3.37182,6.875 -3.37182,6.875 -6.6146,0 c -3.63803,0 -6.6146,-0.29995 -6.6146,-0.66655 z m 17.5,0 c 0,-0.36661 1.41572,-3.46036 3.14606,-6.875 l 3.14605,-6.20845 9.34036,0 9.34037,0 -3.37182,6.875 -3.37182,6.875 -9.1146,0 c -5.01303,0 -9.1146,-0.29995 -9.1146,-0.66655 z m 22.5,0 c 0,-0.36661 1.41572,-3.46036 3.14606,-6.875 l 3.14605,-6.20845 11.21536,0 11.21537,0 -3.37182,6.875 -3.37182,6.875 -10.9896,0 c -6.04428,0 -10.9896,-0.29995 -10.9896,-0.66655 z m 25,0 c 0,-0.36661 1.41572,-3.46036 3.14606,-6.875 l 3.14605,-6.20845 11.84036,0 11.84037,0 -3.37182,6.875 -3.37182,6.875 -11.6146,0 c -6.38802,0 -11.6146,-0.29995 -11.6146,-0.66655 z m 26.25,0 c 0,-0.36661 1.41572,-3.46036 3.14606,-6.875 l 3.14605,-6.20845 16.84036,0 16.84037,0 -3.37182,6.875 -3.37182,6.875 -16.6146,0 c -9.13803,0 -16.6146,-0.29995 -16.6146,-0.66655 z m 35,0 c 0,-0.36661 1.41572,-3.46036 3.14606,-6.875 l 3.14605,-6.20845 932.46543,0 932.4654,0 -3.3719,6.875 -3.3718,6.875 -932.2396,0 c -512.73181,0 -932.23964,-0.29995 -932.23964,-0.66655 z m 1866.25004,0 c 0,-0.36661 1.4158,-3.46036 3.146,-6.875 l 3.1461,-6.20845 16.8404,0 16.8404,0 -3.3719,6.875 -3.3718,6.875 -16.6146,0 c -9.138,0 -16.6146,-0.29995 -16.6146,-0.66655 z m 36.25,0 c 0,-0.36661 1.4158,-3.46036 3.146,-6.875 l 3.1461,-6.20845 11.8404,0 11.8404,0 -3.3719,6.875 -3.3718,6.875 -11.6146,0 c -6.388,0 -11.6146,-0.29995 -11.6146,-0.66655 z m 26.25,0 c 0,-0.36661 1.4158,-3.46036 3.146,-6.875 l 3.1461,-6.20845 11.2154,0 11.2154,0 -3.3719,6.875 -3.3718,6.875 -10.9896,0 c -6.0442,0 -10.9896,-0.29995 -10.9896,-0.66655 z m 26.25,0 c 0,-0.36661 1.4158,-3.46036 3.146,-6.875 l 3.1461,-6.20845 9.3404,0 9.3404,0 -3.3719,6.875 -3.3718,6.875 -9.1146,0 c -5.013,0 -9.1146,-0.29995 -9.1146,-0.66655 z m 22.5,0 c 0,-0.36661 1.4158,-3.46036 3.146,-6.875 l 3.1461,-6.20845 6.8404,0 6.8404,0 -3.3719,6.875 -3.3718,6.875 -6.6146,0 c -3.638,0 -6.6146,-0.29995 -6.6146,-0.66655 z m 18.75,0 c 0,-0.36661 1.4158,-3.46036 3.146,-6.875 3.137,-6.19038 3.1643,-6.20845 9.3615,-6.20845 l 6.2154,0 -3.3719,6.875 -3.3718,6.875 -5.9896,0 c -3.2942,0 -5.9896,-0.29995 -5.9896,-0.66655 z m 17.5,0 c 0,-0.36661 1.4158,-3.46036 3.146,-6.875 2.7093,-5.34644 3.662,-6.20845 6.8615,-6.20845 l 3.7154,0 -3.3719,6.875 c -2.8869,5.88635 -3.8736,6.875 -6.8614,6.875 -1.9192,0 -3.4896,-0.29995 -3.4896,-0.66655 z m 12.5,0 c 0,-0.36661 1.4158,-3.46036 3.146,-6.875 2.1703,-4.28262 3.9109,-6.20845 5.6115,-6.20845 2.3439,0 2.2993,0.3386 -0.9065,6.875 -2.2171,4.5206 -4.1387,6.875 -5.6114,6.875 -1.2317,0 -2.2396,-0.29995 -2.2396,-0.66655 z M 191.62094,697.15001 c 7.47539,-14.98336 10.89323,-20.625 12.49515,-20.625 1.21279,0 2.20507,0.33829 2.20507,0.75176 0,0.41346 -4.64062,9.68494 -10.3125,20.60327 -7.29672,14.04613 -10.95079,19.85786 -12.49514,19.87323 -1.74437,0.0174 -0.1164,-4.11975 8.10742,-20.60326 z m 10,0 c 9.58422,-19.21023 10.52707,-20.625 13.74514,-20.625 1.90029,0 3.45508,0.33829 3.45508,0.75176 0,0.41346 -4.64063,9.68494 -10.3125,20.60327 -9.49628,18.28028 -10.58419,19.85322 -13.74514,19.87323 l -3.43264,0.0217 10.29006,-20.625 z m 12.50001,0 10.29006,-20.625 5.95507,0 c 3.27529,0 5.95508,0.33829 5.95508,0.75176 0,0.41346 -4.64063,9.68494 -10.3125,20.60327 l -10.3125,19.8515 -5.93264,0.0217 -5.93264,0.0217 10.29007,-20.625 z m 17.5,0 10.29006,-20.625 6.58007,0 c 3.61904,0 6.58008,0.33829 6.58008,0.75176 0,0.41346 -4.64063,9.68494 -10.3125,20.60327 l -10.3125,19.8515 -6.55764,0.0217 -6.55765,0.0217 10.29008,-20.625 z m 17.5,0 10.29006,-20.625 9.08007,0 c 4.99404,0 9.08008,0.33829 9.08008,0.75176 0,0.41346 -4.64063,9.68494 -10.3125,20.60327 l -10.3125,19.8515 -9.05764,0.0217 -9.05765,0.0217 10.29008,-20.625 z m 22.5,0 10.29006,-20.625 10.95507,0 c 6.02529,0 10.95508,0.33829 10.95508,0.75176 0,0.41346 -4.64063,9.68494 -10.3125,20.60327 l -10.3125,19.8515 -10.93264,0.0217 -10.93265,0.0217 10.29008,-20.625 z m 25,0 10.29006,-20.625 11.58007,0 c 6.36904,0 11.58008,0.33829 11.58008,0.75176 0,0.41346 -4.64063,9.68494 -10.3125,20.60327 l -10.3125,19.8515 -11.55764,0.0217 -11.55765,0.0217 10.29008,-20.625 z m 26.25,0 10.29006,-20.625 16.58007,0 c 9.11904,0 16.58008,0.33829 16.58008,0.75176 0,0.41346 -4.64063,9.68494 -10.3125,20.60327 l -10.3125,19.8515 -16.55764,0.0217 -16.55765,0.0217 10.29008,-20.625 z m 35,0 10.29006,-20.625 783.45509,0 783.4551,0 0,-18.75 c 0,-18.58277 -0.025,-18.75085 -2.8125,-18.84564 -1.5469,-0.0526 -3.6562,-0.25727 -4.6875,-0.45484 -1.0312,-0.19755 -5.5312,-0.71839 -10,-1.15742 -15.4546,-1.51832 -25.2824,-3.56148 -51.875,-10.7845 -18.8237,-5.11287 -56.0912,-22.03035 -73.4104,-33.32447 l -8.4103,-5.48456 3.1906,-7.16178 c 1.7547,-3.93899 4.6072,-10.53679 6.3387,-14.66179 1.7315,-4.125 3.5378,-7.91357 4.0139,-8.41906 0.4761,-0.50549 3.6977,0.98819 7.1591,3.31926 7.8743,5.30279 30.9284,18.2248 32.515,18.2248 0.6496,0 3.225,-4.79377 5.723,-10.65282 l 4.5419,-10.65283 -3.9558,-1.82404 c -3.9425,-1.81795 -10.3247,-5.46356 -21.708,-12.40002 -5.5602,-3.38815 -17.9115,-12.2048 -21.1468,-15.09529 -0.7697,-0.6875 -4.1447,-3.59086 -7.5,-6.45192 -32.501,-27.71226 -56.2765,-62.96301 -70.9799,-105.23804 -9.9124,-28.50021 -13.1855,-49.88214 -12.6571,-82.68504 0.216,-13.40625 0.7492,-26.0625 1.185,-28.125 0.4358,-2.0625 1.9603,-9.65625 3.3878,-16.875 5.7695,-29.1766 22.957,-70.16328 36.9669,-88.15454 0.548,-0.70375 2.9451,-4.07875 5.327,-7.5 2.3818,-3.42125 4.913,-6.85009 5.625,-7.61963 0.7119,-0.76956 3.6353,-4.14456 6.4963,-7.5 27.7122,-32.50093 62.963,-56.27647 105.2381,-70.97981 28.4834,-9.906584 49.8747,-13.183034 82.685,-12.664574 13.4062,0.21185 25.5,0.66386 26.875,1.00449 1.375,0.34062 5.0312,1.0332 8.125,1.53906 3.0937,0.50586 6.75,1.14049 8.125,1.41026 1.375,0.26979 3.9062,0.75456 5.625,1.07728 2.5922,0.486734 28.4345,7.975864 35.0421,10.155304 1.424,0.46966 3.0318,-2.00434 6.25,-9.61748 2.3831,-5.637394 4.2479,-10.593054 4.144,-11.012574 -0.2931,-1.18352 -26.3855,-9.73308 -35.1236,-11.50881 -4.2969,-0.8732 -7.8125,-2.21297 -7.8125,-2.97728 0,-1.24842 12.0696,-29.387946 13.0072,-30.325595 0.2129,-0.21285 3.7014,0.519191 7.7524,1.62676 4.051,1.107568 9.0529,2.473736 11.1154,3.03593 29.1575,7.947715 71.3576,29.680545 98.125,50.533915 17.8722,13.923544 39.0684,34.888684 51.286,50.727294 2.3864,3.09375 4.6931,5.90625 5.1259,6.25 1.7743,1.40933 19.8275,30.0822 24.7915,39.375 7.8478,14.69154 20.7628,47.4875 25.0137,63.51897 7.2574,27.37004 10.1488,50.20864 10.0775,79.60329 -0.028,11.34525 -0.2836,22.03399 -0.5692,23.75274 -0.2857,1.71875 -0.8534,6.5 -1.2617,10.625 -1.4858,15.01489 -3.557,24.92944 -10.7061,51.25 -7.8907,29.05091 -29.6769,71.35754 -50.5304,98.125 -13.9235,17.87227 -34.8886,39.06831 -50.7272,51.28596 -3.0938,2.38648 -5.9063,4.69313 -6.25,5.12591 -1.4094,1.77434 -30.0823,19.82749 -39.375,24.79148 -14.6604,7.83119 -47.463,20.75476 -63.519,25.02512 -17.8546,4.74878 -40.4605,8.56813 -56.7935,9.59552 l -12.8125,0.80592 0,18.56005 0,18.56004 135.625,0 c 74.5937,0 135.625,0.33829 135.625,0.75176 0,0.41346 -4.6406,9.68494 -10.3125,20.60326 l -10.3125,19.8515 -932.1826,0.0217 -932.18273,0.0218 10.29008,-20.625 z M 1998.1962,601.57172 c 39.1669,-7.75272 73.1981,-21.68864 106.25,-43.5099 13.364,-8.82305 19.7071,-14.18572 35.7154,-30.19512 20.679,-20.68027 33.2005,-36.85974 45.5097,-58.80461 24.7759,-44.17055 35.8154,-90.31488 34.0538,-142.34318 -1.6484,-48.68217 -17.518,-96.3649 -46.867,-140.8189 -8.832,-13.37744 -14.1697,-19.68846 -30.1951,-35.70133 -12.3318,-12.3219 -24.209,-22.8211 -32.405,-28.64516 -12.7505,-9.06036 -39.588,-25.011354 -42.1007,-25.022704 -0.7088,-0.004 -3.3327,4.787964 -5.8307,10.647014 l -4.5419,10.65283 3.9558,1.82404 c 3.9425,1.81795 10.3247,5.46356 21.708,12.40002 5.5602,3.38815 17.9115,12.2048 21.1468,15.09529 0.7697,0.6875 4.1447,3.59086 7.5,6.45193 32.501,27.71224 56.2765,62.96299 70.9799,105.23803 21.1701,60.86836 16.66,128.69236 -12.432,186.95755 -9.519,19.06452 -19.958,35.81544 -27.4214,44.00167 -0.7016,0.76954 -3.6165,4.14454 -6.4775,7.5 -27.7122,32.50092 -62.963,56.27646 -105.2381,70.97979 -28.5001,9.91243 -49.8821,13.18549 -82.685,12.65713 -13.4062,-0.21594 -26.0625,-0.74581 -28.125,-1.17749 -4.3532,-0.91112 -8.4804,-1.68379 -13.75,-2.5742 -8.9896,-1.51899 -24.1987,-5.52951 -35.5895,-9.38471 -4.4491,-1.50583 -8.264,-2.26804 -8.4772,-1.69379 -0.2133,0.57425 -2.2819,5.26284 -4.5968,10.41909 -2.3149,5.15625 -3.8439,9.75857 -3.3977,10.2274 1.404,1.47525 24.008,8.58804 37.6862,11.85871 21.0814,5.04085 37.7758,6.57988 66.25,6.10744 19.956,-0.3311 28.6669,-1.02726 39.375,-3.14684 z M 1959.0518,504.192 c 11.5945,-9.29776 16.8575,-14.87033 15.3237,-16.22489 -1.0224,-0.90293 -13.3465,-6.34613 -55.6933,-24.5981 l -9.514,-4.10064 -8.4492,19.56582 c -4.6472,10.7612 -8.7088,20.23212 -9.0259,21.04648 -1.2774,3.28057 33.0371,11.31429 49.2337,11.52662 l 8.9807,0.11775 9.1443,-7.33302 z m 38.0308,2.08208 c 5.7687,-1.51299 10.4886,-3.12551 10.4886,-3.58333 0,-0.45784 -2.793,-1.99315 -6.2066,-3.4118 l -6.2068,-2.57938 -5.1597,6.16271 c -2.8378,3.3895 -4.7646,6.16273 -4.2819,6.16273 0.4828,0 5.5976,-1.23791 11.3664,-2.75093 z m 57.3636,-27.1106 c 11.3274,-7.91195 30.6604,-26.58045 36.679,-35.41846 l 4.0214,-5.90497 -4.1003,-1.75393 c -2.255,-0.96465 -12.7381,-5.5132 -23.2956,-10.10787 -10.5575,-4.59468 -19.3454,-8.17943 -19.5285,-7.9661 -0.1831,0.21332 -1.317,2.35661 -2.5196,4.76286 -6.3159,12.63669 -25.5317,42.67025 -36.6109,57.22153 -1.7155,2.25308 -2.7588,4.45686 -2.3184,4.89726 0.4404,0.44041 5.4408,2.89137 11.1119,5.44656 l 10.311,4.64581 8.125,-4.41893 c 4.4688,-2.43043 12.625,-7.56212 18.125,-11.40375 z m -169.9171,-6.68961 c 4.6649,-10.82187 8.242,-19.91294 7.9494,-20.20236 -0.5185,-0.51255 -58.8312,-26.08349 -64.756,-28.39635 l -2.9737,-1.16085 0.5664,17.74727 0.5664,17.74727 7.1212,6.62838 c 13.7767,12.82327 40.1665,30.4519 42.2251,28.20675 0.4509,-0.49168 4.6364,-9.74823 9.3012,-20.57011 z m 106.6783,-0.0113 c 6.6554,-7.59481 13.3854,-16.53762 20.9309,-27.8125 7.8075,-11.66635 20.4329,-32.29821 20.4329,-33.39049 0,-1.44567 -85.2013,-37.52627 -86.1573,-36.48542 -1.0243,1.11539 -30.0757,67.57242 -30.4981,69.76666 -0.1874,0.9733 68.0031,31.73498 70.7561,31.91903 0.5367,0.0359 2.5777,-1.7629 4.5355,-3.99728 z m -71.3751,-81.25 c 11.1345,-25.60937 20.2433,-47.1876 20.2418,-47.9516 0,-1.93976 -86.547,-39.44181 -87.8991,-38.0897 -2.0913,2.09128 -13.5563,37.11668 -17.8329,54.4788 -4.2041,17.06826 -9.1394,46.28441 -7.9771,47.22404 1.3162,1.06424 70.6865,30.85302 71.902,30.876 0.7263,0.0138 10.4307,-20.92816 21.5653,-46.53754 z m -114.427,29.46193 0.5323,-6.47557 -6.1858,-2.57063 c -5.6218,-2.33637 -6.1102,-2.37277 -5.3587,-0.39943 1.7527,4.6022 9.881,18.29774 10.1727,17.14028 0.169,-0.67049 0.5468,-4.13309 0.8395,-7.69465 z m 4.0215,-30.05185 c 2.101,-16.81619 11.8867,-51.9786 22.122,-79.4901 2.7659,-7.43464 4.7483,-13.79832 4.405,-14.14152 -0.668,-0.66813 -45.6936,-20.46607 -46.5448,-20.46607 -1.0994,0 -6.8353,21.27808 -8.7612,32.5 -2.2017,12.82981 -2.7856,34.1123 -1.3202,48.125 1.1956,11.43428 5.5882,30.39463 7.4247,32.04794 1.9979,1.79872 20.0118,9.5523 20.9853,9.03258 0.4352,-0.23237 1.1954,-3.65593 1.6892,-7.60795 z m 347.9907,-10.45653 c 2.6317,-12.31981 3.2793,-21.26131 3.2512,-44.89105 -0.041,-34.68759 3.5849,-29.5928 -32.0556,-45.03825 -16.6088,-7.19771 -30.7765,-13.08675 -31.4839,-13.08675 -0.7075,0 -2.2434,5.34375 -3.4134,11.875 -2.844,15.87758 -7.778,35.17878 -13.2011,51.64125 -2.449,7.43393 -4.2405,13.72843 -3.9811,13.98775 1.6316,1.63168 78.0543,34.03141 78.6523,33.34503 0.4068,-0.46697 1.411,-3.9918 2.2316,-7.83298 z m -93.8035,-42.39111 c 4.1066,-12.82297 8.781,-32.47075 11.4773,-48.24246 4.0103,-23.4575 7.6944,-19.17004 -30.9576,-36.02745 -18.3906,-8.02076 -34.5865,-14.87295 -35.9907,-15.2271 -2.2872,-0.57675 -4.1645,3.06946 -18.005,34.96807 -8.4984,19.58658 -15.4125,36.04026 -15.3648,36.56374 0.1285,1.40879 84.5394,37.8656 85.4558,36.90811 0.4306,-0.44985 1.9537,-4.47416 3.385,-8.94291 z m -104.3941,-37.1875 c 5.8966,-13.57813 15.221,-34.99695 20.7214,-47.5974 l 10.0005,-22.9099 -7.1229,-3.1658 c -3.9175,-1.74118 -20.4496,-8.95295 -36.738,-16.02616 l -29.6153,-12.86036 -9.6663,12.06106 c -19.6735,24.54761 -49.129,74.58039 -45.8186,77.82702 1.548,1.51812 83.2575,37.112 85.492,37.24155 1.4733,0.0854 4.9533,-6.62212 12.7472,-24.57001 z m 191.3687,-29.31105 c -6.1485,-18.8129 -24.1318,-52.07505 -35.1268,-64.9712 -1.9336,-2.26797 -7.0831,-7.78696 -11.4432,-12.26441 -6.3744,-6.54571 -7.7965,-7.52853 -7.2584,-5.01584 2.3041,10.75867 3.55,32.66067 2.8297,49.74367 -0.4433,10.51528 -0.9383,19.73315 -1.1,20.48418 -0.4253,1.9774 54.6045,25.8943 55.0982,23.94651 0.2155,-0.85056 -1.1343,-6.21587 -2.9995,-11.92291 z m -304.3566,4.93605 c 4.4503,-12.86441 31.4431,-58.2639 46.1016,-77.53881 6.2814,-8.25957 6.3747,-8.50424 3.6544,-9.56791 -1.5355,-0.60039 -6.5235,-2.78017 -11.0845,-4.84397 l -8.2928,-3.75236 -9.3887,5.35113 c -27.9863,15.95082 -52.2828,40.12566 -66.7138,66.37982 l -4.4306,8.06039 4.1844,1.76345 c 2.3013,0.9699 12.6217,5.45122 22.9342,9.9585 10.3125,4.50727 19.3981,8.20792 20.1903,8.22365 0.7921,0.0158 2.0726,-1.79952 2.8455,-4.03389 z m 232.5593,-38.125 c -0.041,-18.752 -1.0631,-22.30113 -8.327,-28.92801 -8.6667,-7.90687 -23.0415,-18.32625 -32.3175,-23.42499 l -8.0194,-4.408 -2.9224,6.66175 c -11.965,27.2743 -15.0996,35.2605 -14.0088,35.69181 0.6875,0.27185 15.0312,6.59563 31.875,14.05283 16.8437,7.4572 31.3281,13.6111 32.1875,13.67532 1.162,0.0869 1.5549,-3.32717 1.5326,-13.32071 z m -73.8326,-42.62975 c 4.8744,-11.24325 8.8625,-20.64704 8.8625,-20.89733 0,-0.25028 -4.6406,-1.85362 -10.3125,-3.56298 -12.8651,-3.8772 -30.2321,-6.87973 -41.1386,-7.11232 -8.0795,-0.1723 -8.5425,-0.01 -15.625,5.48883 -9.1359,7.09249 -18.9564,17.2924 -17.2989,17.96705 0.6875,0.27982 15.875,6.89776 33.75,14.70651 17.875,7.80875 32.59,14.12005 32.7,14.02511 0.11,-0.095 4.1881,-9.37163 9.0625,-20.61487 z m -91.45,-22.62121 c 2.2344,-2.69136 4.0625,-5.15785 4.0625,-5.48108 0,-0.32322 -4.5,0.59726 -10,2.04553 -5.5,1.44826 -10,3.02097 -10,3.49491 0,0.9025 8.4635,4.71974 10.625,4.79216 0.6875,0.023 3.0781,-2.16015 5.3125,-4.85152 z m 310.6123,524.31346 10.2901,-20.625 16.58,0 c 9.1191,0 16.5801,0.33829 16.5801,0.75176 0,0.41346 -4.6406,9.68494 -10.3125,20.60327 l -10.3125,19.8515 -16.5576,0.0217 -16.5577,0.0217 10.29,-20.625 z m 36.25,0 10.2901,-20.625 11.58,0 c 6.3691,0 11.5801,0.33829 11.5801,0.75176 0,0.41346 -4.6406,9.68494 -10.3125,20.60327 l -10.3125,19.8515 -11.5576,0.0217 -11.5577,0.0217 10.29,-20.625 z m 26.25,0 10.2901,-20.625 10.955,0 c 6.0253,0 10.9551,0.33829 10.9551,0.75176 0,0.41346 -4.6406,9.68494 -10.3125,20.60327 l -10.3125,19.8515 -10.9326,0.0217 -10.9327,0.0217 10.29,-20.625 z m 26.25,0 10.2901,-20.625 9.08,0 c 4.9941,0 9.0801,0.33829 9.0801,0.75176 0,0.41346 -4.6406,9.68494 -10.3125,20.60327 l -10.3125,19.8515 -9.0576,0.0217 -9.0577,0.0217 10.29,-20.625 z m 22.5,0 10.2901,-20.625 6.58,0 c 3.6191,0 6.5801,0.33829 6.5801,0.75176 0,0.41346 -4.6406,9.68494 -10.3125,20.60327 l -10.3125,19.8515 -6.5576,0.0217 -6.5577,0.0217 10.29,-20.625 z m 18.75,0 10.2901,-20.625 5.955,0 c 3.2753,0 5.9551,0.33829 5.9551,0.75176 0,0.41346 -4.6406,9.68494 -10.3125,20.60327 l -10.3125,19.8515 -5.9326,0.0217 -5.9327,0.0217 10.29,-20.625 z m 17.5,0 c 9.5842,-19.21023 10.5271,-20.625 13.7451,-20.625 1.9004,0 3.4551,0.33829 3.4551,0.75176 0,0.41346 -4.6406,9.68494 -10.3125,20.60327 -9.4962,18.28028 -10.5842,19.85322 -13.7451,19.87323 l -3.4326,0.0217 10.29,-20.625 z m 12.5,0 c 7.4753,-14.98336 10.8932,-20.625 12.4951,-20.625 1.2129,0 2.2051,0.33829 2.2051,0.75176 0,0.41346 -4.6406,9.68494 -10.3125,20.60327 -7.2967,14.04613 -10.9507,19.85786 -12.4951,19.87323 -1.7444,0.0174 -0.1163,-4.11975 8.1074,-20.60326 z m -1946.54984,-359.375 0,-243.750004 34.375,0 34.375,0 0,209.375004 0,209.375 286.65472,0 c 258.20392,0 287.82422,-0.2004 298.43752,-2.01916 40.1898,-6.88713 73.9617,-28.0407 84.9123,-53.18609 14.2282,-32.67173 -24.0114,-70.45978 -82.5969,-81.62161 -5.7929,-1.10369 -22.9076,-2.80643 -38.0326,-3.78388 -31.2286,-2.01812 -48.4269,-4.96019 -69.55838,-11.89915 -56.20809,-18.45709 -96.81376,-56.25911 -108.74876,-101.24011 -3.84875,-14.50529 -3.83087,-37.35845 0.0405,-51.875 9.40523,-35.26623 36.33021,-66.30941 75.30153,-86.81894 21.06358,-11.08519 42.0582,-17.99685 71.10741,-23.409384 11.0947,-2.06719 31.4617,-2.23334 316.5451,-2.58224 l 304.6875,-0.37291 0,34.404234 0,34.40424 -124.375,0 -124.375,0 0,209.375 0,209.375 -34.375,0 -34.375,0 0,-209.41468 0,-209.41468 -145.3125,0.40668 c -143.3837,0.40129 -145.4632,0.44219 -156.6678,3.08159 -23.2407,5.47471 -40.56886,13.00758 -55.6645,24.19844 -19.04836,14.12112 -29.46879,33.5033 -26.20194,48.73606 6.06684,28.28871 39.40449,52.42268 84.35874,61.06943 6.9372,1.33432 23.0193,3.04124 35.738,3.79311 46.185,2.7303 75.6941,10.15441 107.3981,27.02001 14.7349,7.8385 28.7648,18.16074 40.2737,29.63053 24.4861,24.4029 36.1996,50.55204 36.5162,81.51851 0.31,30.31159 -10.7409,56.53936 -34.1633,81.08261 -27.7763,29.10539 -66.3595,47.59829 -116.313,55.74877 -15.3874,2.51061 -19.7065,2.54313 -337.7742,2.54337 l -322.18744,2.5e-4 0,-243.75 z m 1086.25004,58.125 0,-185.625 34.375,0 34.375,0 0,185.625 0,185.625 -34.375,0 -34.375,0 0,-185.625 z m -852.50004,66.08495 c -21.84075,-4.12258 -42.84822,-12.41134 -57.01775,-22.49709 -10.65588,-7.58476 -24.32,-22.35334 -29.87947,-32.29461 -8.17347,-14.61554 -10.99865,-25.38606 -10.99543,-41.91825 0.002,-12.15056 0.5116,-15.92243 3.29075,-24.375 4.35146,-13.23465 10.85544,-23.98288 21.29475,-35.19094 14.89214,-15.98879 33.96543,-26.88651 59.24776,-33.85185 11.07209,-3.05037 14.18133,-3.35681 34.05939,-3.35681 19.78468,0 23.00975,0.31437 33.75,3.28999 6.53125,1.8095 12.85937,3.67521 14.0625,4.14603 1.90165,0.74419 2.18556,0.0626 2.17266,-5.21518 -0.0475,-19.43099 -10.88535,-34.06998 -30.93814,-41.78894 -5.58701,-2.15061 -9.79638,-2.76074 -19.04702,-2.76074 -13.51939,0 -21.73241,2.48239 -32.75543,9.90033 l -6.47007,4.35403 -8.82475,-4.06005 c -4.85361,-2.23303 -18.29253,-8.59511 -29.86426,-14.13796 l -21.03952,-10.07791 8.03272,-7.92825 c 15.47106,-15.26988 34.81997,-25.87274 57.86792,-31.71061 9.50744,-2.40817 14.44828,-2.8314 33.05339,-2.8314 25.31935,0 36.00855,2.05637 55.79395,10.73357 29.71029,13.02993 49.84646,34.41081 59.31985,62.98669 2.86115,8.6305 2.91006,9.7231 3.58099,80 0.65927,69.0567 0.76123,71.42511 3.31228,76.93851 3.35035,7.24088 9.65824,14.4473 16.39025,18.72498 l 5.27233,3.35016 -23.75731,19.61313 c -13.06653,10.78722 -24.44652,19.8776 -25.28884,20.20083 -0.84234,0.32324 -6.44271,-3.6427 -12.44528,-8.81318 l -10.91373,-9.40089 -11.59608,5.5284 c -19.16652,9.13761 -32.93566,12.22059 -56.54341,12.66032 -11,0.2049 -21.40625,0.10713 -23.125,-0.21731 z m 37.02009,-58.56328 c 15.66756,-4.66571 27.34713,-15.96674 31.19576,-30.18471 2.35119,-8.686 1.49381,-14.98027 -3.32801,-24.43182 -5.9161,-11.59652 -20.52163,-20.93168 -36.76284,-23.49709 -16.28521,-2.57235 -34.97826,3.17655 -46.03264,14.157 -5.1695,5.13494 -10.14074,14.75984 -11.50087,22.26705 -1.71467,9.46406 5.72345,25.96708 14.75527,32.73765 14.58356,10.93234 33.8278,14.26623 51.67333,8.95193 z"
     style="fill:#000000"
     inkscape:connector-curvature="0" />
</svg>
